<svg xmlns="http://www.w3.org/2000/svg" xmlns:xlink="http://www.w3.org/1999/xlink" width="1000" zoomAndPan="magnify" viewBox="0 0 750 187.499995" height="250" preserveAspectRatio="xMidYMid meet" version="1.0"><defs><clipPath id="cbfa5241f8"><path d="M 79 36.578125 L 671 36.578125 L 671 50 L 79 50 Z M 79 36.578125 " clip-rule="nonzero"/></clipPath><clipPath id="e1486b0047"><path d="M 41.933594 74 L 55 74 L 55 113 L 41.933594 113 Z M 41.933594 74 " clip-rule="nonzero"/></clipPath><clipPath id="c0cae2c426"><path d="M 695 74 L 708.40625 74 L 708.40625 113 L 695 113 Z M 695 74 " clip-rule="nonzero"/></clipPath></defs><g clip-path="url(#cbfa5241f8)"><path fill="#5561d3" d="M 79.707031 36.949219 L 670.632812 36.949219 L 670.632812 49.519531 L 79.707031 49.519531 Z M 79.707031 36.949219 " fill-opacity="1" fill-rule="nonzero"/></g><path fill="#5561d3" d="M 79.707031 137.328125 L 670.632812 137.328125 L 670.632812 149.898438 L 79.707031 149.898438 Z M 79.707031 137.328125 " fill-opacity="1" fill-rule="nonzero"/><path fill="#5561d3" d="M 67.117188 49.519531 L 79.707031 49.519531 L 79.707031 62.089844 L 67.117188 62.089844 Z M 67.117188 49.519531 " fill-opacity="1" fill-rule="nonzero"/><path fill="#5561d3" d="M 54.523438 62.089844 L 67.117188 62.089844 L 67.117188 74.660156 L 54.523438 74.660156 Z M 54.523438 62.089844 " fill-opacity="1" fill-rule="nonzero"/><path fill="#5561d3" d="M 67.117188 124.761719 L 79.707031 124.761719 L 79.707031 137.328125 L 67.117188 137.328125 Z M 67.117188 124.761719 " fill-opacity="1" fill-rule="nonzero"/><path fill="#5561d3" d="M 54.523438 112.191406 L 67.117188 112.191406 L 67.117188 124.761719 L 54.523438 124.761719 Z M 54.523438 112.191406 " fill-opacity="1" fill-rule="nonzero"/><g clip-path="url(#e1486b0047)"><path fill="#5561d3" d="M 41.933594 74.660156 L 54.523438 74.660156 L 54.523438 112.367188 L 41.933594 112.367188 Z M 41.933594 74.660156 " fill-opacity="1" fill-rule="nonzero"/></g><path fill="#5561d3" d="M 683.273438 137.429688 L 670.679688 137.429688 L 670.679688 124.859375 L 683.273438 124.859375 Z M 683.273438 137.429688 " fill-opacity="1" fill-rule="nonzero"/><path fill="#5561d3" d="M 695.828125 124.890625 L 683.238281 124.890625 L 683.238281 112.320312 L 695.828125 112.320312 Z M 695.828125 124.890625 " fill-opacity="1" fill-rule="nonzero"/><path fill="#5561d3" d="M 683.273438 62.039062 L 670.679688 62.039062 L 670.679688 49.46875 L 683.273438 49.46875 Z M 683.273438 62.039062 " fill-opacity="1" fill-rule="nonzero"/><path fill="#5561d3" d="M 695.828125 74.574219 L 683.238281 74.574219 L 683.238281 62.003906 L 695.828125 62.003906 Z M 695.828125 74.574219 " fill-opacity="1" fill-rule="nonzero"/><g clip-path="url(#c0cae2c426)"><path fill="#5561d3" d="M 708.386719 112.214844 L 695.796875 112.214844 L 695.796875 74.507812 L 708.386719 74.507812 Z M 708.386719 112.214844 " fill-opacity="1" fill-rule="nonzero"/></g><path fill="#ffffff" d="M 79.707031 49.519531 L 670.632812 49.519531 L 670.632812 62.089844 L 683.222656 62.089844 L 683.222656 74.660156 L 695.816406 74.660156 L 695.816406 112.191406 L 683.222656 112.191406 L 683.222656 124.761719 L 670.632812 124.761719 L 670.632812 137.328125 L 79.707031 137.328125 L 79.707031 124.761719 L 67.117188 124.761719 L 67.117188 112.191406 L 54.523438 112.191406 L 54.523438 74.660156 L 67.117188 74.660156 L 67.117188 62.089844 L 79.707031 62.089844 Z M 79.707031 49.519531 " fill-opacity="1" fill-rule="nonzero"/><path fill="#5561d3" d="M 92.300781 62.089844 L 104.890625 62.089844 L 104.890625 74.660156 L 92.300781 74.660156 Z M 92.300781 62.089844 " fill-opacity="1" fill-rule="nonzero"/><path fill="#5561d3" d="M 79.707031 74.660156 L 92.300781 74.660156 L 92.300781 112.367188 L 79.707031 112.367188 Z M 79.707031 74.660156 " fill-opacity="1" fill-rule="nonzero"/><path fill="#f87b7b" d="M 79.707031 49.519531 L 670.808594 49.519531 L 670.808594 62.089844 L 79.707031 62.089844 Z M 79.707031 49.519531 " fill-opacity="1" fill-rule="nonzero"/><path fill="#ff999a" d="M 79.707031 124.761719 L 670.808594 124.761719 L 670.808594 137.328125 L 79.707031 137.328125 Z M 79.707031 124.761719 " fill-opacity="1" fill-rule="nonzero"/><path fill="#f87b7b" d="M 67.117188 62.089844 L 79.707031 62.089844 L 79.707031 74.660156 L 67.117188 74.660156 Z M 67.117188 62.089844 " fill-opacity="1" fill-rule="nonzero"/><path fill="#f87b7b" d="M 67.117188 112.191406 L 79.707031 112.191406 L 79.707031 124.761719 L 67.117188 124.761719 Z M 67.117188 112.191406 " fill-opacity="1" fill-rule="nonzero"/><path fill="#f87b7b" d="M 54.523438 74.660156 L 67.117188 74.660156 L 67.117188 112.367188 L 54.523438 112.367188 Z M 54.523438 74.660156 " fill-opacity="1" fill-rule="nonzero"/><path fill="#ff999a" d="M 683.242188 74.574219 L 670.648438 74.574219 L 670.648438 62.003906 L 683.242188 62.003906 Z M 683.242188 74.574219 " fill-opacity="1" fill-rule="nonzero"/><path fill="#ff999a" d="M 683.242188 124.890625 L 670.648438 124.890625 L 670.648438 112.320312 L 683.242188 112.320312 Z M 683.242188 124.890625 " fill-opacity="1" fill-rule="nonzero"/><path fill="#ff999a" d="M 695.800781 112.214844 L 683.207031 112.214844 L 683.207031 74.507812 L 695.800781 74.507812 Z M 695.800781 112.214844 " fill-opacity="1" fill-rule="nonzero"/></svg>