<svg xmlns="http://www.w3.org/2000/svg" xmlns:xlink="http://www.w3.org/1999/xlink" width="350" zoomAndPan="magnify" viewBox="0 0 262.5 112.499997" height="150" preserveAspectRatio="xMidYMid meet" version="1.0"><defs><clipPath id="20e4664688"><path d="M 1 0.339844 L 261.671875 0.339844 L 261.671875 112.003906 L 1 112.003906 Z M 1 0.339844 " clip-rule="nonzero"/></clipPath><clipPath id="f5c9a33ec2"><path d="M 0.332031 0.339844 L 261.671875 0.339844 L 261.671875 112.003906 L 0.332031 112.003906 Z M 0.332031 0.339844 " clip-rule="nonzero"/></clipPath></defs><g clip-path="url(#20e4664688)"><path fill="#f87b7b" d="M 261.1875 22.957031 L 254.460938 22.957031 L 254.460938 16.125 L 254.363281 16.125 L 254.363281 16.097656 L 246.886719 16.097656 L 246.886719 8.53125 L 239.320312 8.53125 L 239.320312 0.933594 L 239.21875 0.933594 L 239.21875 0.90625 L 23.136719 0.90625 L 23.136719 8.503906 L 16.328125 8.503906 L 16.328125 15.867188 L 16.148438 15.867188 L 16.148438 16.097656 L 8.742188 16.097656 L 8.742188 22.925781 L 1.160156 22.925781 L 1.160156 90.511719 L 8.742188 90.511719 L 8.742188 98.105469 L 8.832031 98.105469 L 8.832031 98.132812 L 16.308594 98.132812 L 16.308594 104.941406 L 23.148438 104.941406 L 23.148438 112.511719 L 239.320312 112.511719 L 239.320312 104.996094 L 239.238281 104.996094 L 246.90625 104.996094 L 246.90625 98.160156 L 254.480469 98.160156 L 254.480469 90.546875 L 261.304688 90.546875 L 261.304688 22.957031 Z M 246.648438 23.292969 L 246.648438 16.125 L 246.949219 16.125 L 246.949219 23.292969 Z M 8.832031 90.335938 L 16.148438 90.335938 L 16.148438 90.511719 L 8.832031 90.511719 Z M 242.644531 87.765625 L 253.601562 87.765625 L 253.601562 88.007812 L 242.859375 88.007812 L 242.859375 97.347656 L 242.644531 97.347656 Z M 242.644531 87.765625 " fill-opacity="1" fill-rule="nonzero"/><path fill="#ff999a" d="M 254.832031 22.617188 L 254.832031 16.070312 L 254.746094 16.070312 L 254.746094 15.769531 L 247.160156 15.769531 L 247.160156 16.070312 L 246.921875 16.070312 L 246.921875 15.769531 L 247.160156 15.769531 L 247.160156 8.148438 L 239.570312 8.148438 L 239.570312 8.289062 L 239.480469 8.289062 L 239.480469 8.148438 L 239.570312 8.148438 L 239.570312 0.535156 L 23.191406 0.535156 L 23.191406 8.148438 L 16.359375 8.148438 L 16.359375 15.535156 L 16.261719 15.535156 L 16.261719 15.507812 L 16.082031 15.507812 L 16.082031 15.742188 L 16.183594 15.742188 L 16.183594 15.769531 L 8.769531 15.769531 L 8.769531 22.617188 L 1.171875 22.617188 L 1.171875 90.394531 L 8.769531 90.394531 L 8.769531 90.195312 L 8.832031 90.195312 L 8.832031 90.394531 L 8.769531 90.394531 L 8.769531 98.015625 L 16.359375 98.015625 L 16.359375 104.875 L 23.191406 104.875 L 23.191406 112.488281 L 239.570312 112.488281 L 239.570312 104.996094 L 243.753906 104.996094 L 243.753906 104.875 L 247.160156 104.875 L 247.160156 98.015625 L 254.746094 98.015625 L 254.746094 90.394531 L 261.582031 90.394531 L 261.582031 22.617188 Z M 254.832031 22.617188 " fill-opacity="1" fill-rule="nonzero"/></g><path fill="#ffffff" d="M 53.300781 75.238281 L 53.300781 82.703125 L 60.738281 82.703125 L 60.738281 60.304688 L 53.300781 60.304688 Z M 53.300781 75.238281 " fill-opacity="1" fill-rule="nonzero"/><path fill="#ffffff" d="M 90.515625 22.972656 L 68.1875 22.972656 L 68.1875 30.4375 L 83.074219 30.4375 L 83.074219 90.167969 L 90.515625 90.167969 L 90.515625 30.4375 L 105.410156 30.4375 L 105.410156 22.972656 Z M 90.515625 22.972656 " fill-opacity="1" fill-rule="nonzero"/><path fill="#ffffff" d="M 45.859375 22.972656 L 30.96875 22.972656 L 30.96875 30.4375 L 60.738281 30.4375 L 60.738281 22.972656 Z M 45.859375 22.972656 " fill-opacity="1" fill-rule="nonzero"/><path fill="#ffffff" d="M 38.410156 82.703125 L 23.523438 82.703125 L 23.523438 90.167969 L 53.300781 90.167969 L 53.300781 82.703125 Z M 38.410156 82.703125 " fill-opacity="1" fill-rule="nonzero"/><path fill="#ffffff" d="M 38.410156 60.304688 L 53.300781 60.304688 L 53.300781 52.835938 L 30.96875 52.835938 L 30.96875 60.304688 Z M 38.410156 60.304688 " fill-opacity="1" fill-rule="nonzero"/><path fill="#ffffff" d="M 23.523438 37.90625 L 23.523438 52.835938 L 30.96875 52.835938 L 30.96875 30.4375 L 23.523438 30.4375 Z M 23.523438 37.90625 " fill-opacity="1" fill-rule="nonzero"/><path fill="#ffffff" d="M 187.277344 37.90625 L 187.277344 52.835938 L 194.71875 52.835938 L 194.71875 30.4375 L 187.277344 30.4375 Z M 187.277344 37.90625 " fill-opacity="1" fill-rule="nonzero"/><path fill="#ffffff" d="M 172.382812 52.835938 L 164.949219 52.835938 L 164.949219 30.4375 L 187.277344 30.4375 L 187.277344 22.972656 L 157.5 22.972656 L 157.5 90.167969 L 164.949219 90.167969 L 164.949219 60.304688 L 187.277344 60.304688 L 187.277344 52.835938 Z M 172.382812 52.835938 " fill-opacity="1" fill-rule="nonzero"/><path fill="#ffffff" d="M 231.933594 22.972656 L 202.164062 22.972656 L 202.164062 30.4375 L 217.058594 30.4375 L 217.058594 90.167969 L 224.492188 90.167969 L 224.492188 30.4375 L 239.378906 30.4375 L 239.378906 22.972656 Z M 231.933594 22.972656 " fill-opacity="1" fill-rule="nonzero"/><path fill="#ffffff" d="M 142.621094 37.90625 L 142.621094 52.835938 L 120.289062 52.835938 L 120.289062 30.4375 L 112.84375 30.4375 L 112.84375 90.167969 L 120.289062 90.167969 L 120.289062 60.304688 L 142.621094 60.304688 L 142.621094 90.167969 L 150.066406 90.167969 L 150.066406 30.4375 L 142.621094 30.4375 Z M 142.621094 37.90625 " fill-opacity="1" fill-rule="nonzero"/><path fill="#ffffff" d="M 187.277344 75.238281 L 187.277344 90.167969 L 194.71875 90.167969 L 194.71875 60.304688 L 187.277344 60.304688 Z M 187.277344 75.238281 " fill-opacity="1" fill-rule="nonzero"/><path fill="#ffffff" d="M 135.171875 30.4375 L 142.621094 30.4375 L 142.621094 22.972656 L 120.289062 22.972656 L 120.289062 30.4375 Z M 135.171875 30.4375 " fill-opacity="1" fill-rule="nonzero"/><path fill="#f87b7b" d="M 142.621094 82.703125 L 142.621094 60.304688 L 135.171875 60.304688 L 135.171875 90.167969 L 142.621094 90.167969 Z M 142.621094 82.703125 " fill-opacity="1" fill-rule="nonzero"/><path fill="#f87b7b" d="M 112.84375 22.972656 L 120.289062 22.972656 L 120.289062 30.429688 L 112.84375 30.429688 Z M 112.84375 22.972656 " fill-opacity="1" fill-rule="nonzero"/><path fill="#f87b7b" d="M 142.621094 45.371094 L 142.621094 30.4375 L 135.171875 30.4375 L 135.171875 52.835938 L 142.621094 52.835938 Z M 142.621094 45.371094 " fill-opacity="1" fill-rule="nonzero"/><path fill="#f87b7b" d="M 112.84375 82.703125 L 112.84375 30.4375 L 105.410156 30.4375 L 105.410156 90.167969 L 112.84375 90.167969 Z M 112.84375 82.703125 " fill-opacity="1" fill-rule="nonzero"/><path fill="#f87b7b" d="M 194.710938 22.972656 L 202.160156 22.972656 L 202.160156 30.429688 L 194.710938 30.429688 Z M 194.710938 22.972656 " fill-opacity="1" fill-rule="nonzero"/><path fill="#f87b7b" d="M 187.277344 45.371094 L 187.277344 30.4375 L 179.835938 30.4375 L 179.835938 52.835938 L 187.277344 52.835938 Z M 187.277344 45.371094 " fill-opacity="1" fill-rule="nonzero"/><path fill="#f87b7b" d="M 157.5 82.703125 L 157.5 22.972656 L 150.066406 22.972656 L 150.066406 90.167969 L 157.5 90.167969 Z M 157.5 82.703125 " fill-opacity="1" fill-rule="nonzero"/><path fill="#f87b7b" d="M 217.058594 82.703125 L 217.058594 30.4375 L 209.605469 30.4375 L 209.605469 90.167969 L 217.058594 90.167969 Z M 217.058594 82.703125 " fill-opacity="1" fill-rule="nonzero"/><path fill="#f87b7b" d="M 83.074219 82.703125 L 83.074219 30.4375 L 75.628906 30.4375 L 75.628906 90.167969 L 83.074219 90.167969 Z M 83.074219 82.703125 " fill-opacity="1" fill-rule="nonzero"/><path fill="#f87b7b" d="M 187.277344 82.703125 L 187.277344 60.304688 L 179.835938 60.304688 L 179.835938 90.167969 L 187.277344 90.167969 Z M 187.277344 82.703125 " fill-opacity="1" fill-rule="nonzero"/><path fill="#f87b7b" d="M 23.519531 52.835938 L 30.964844 52.835938 L 30.964844 60.304688 L 23.519531 60.304688 Z M 23.519531 52.835938 " fill-opacity="1" fill-rule="nonzero"/><path fill="#f87b7b" d="M 224.492188 97.636719 L 23.84375 97.636719 L 23.84375 104.847656 L 239.378906 104.847656 L 239.378906 97.636719 Z M 224.492188 97.636719 " fill-opacity="1" fill-rule="nonzero"/><path fill="#f87b7b" d="M 239.378906 97.636719 L 239.464844 97.636719 L 239.464844 97.226562 L 246.820312 97.226562 L 246.820312 90.167969 L 239.378906 90.167969 Z M 239.378906 97.636719 " fill-opacity="1" fill-rule="nonzero"/><path fill="#f87b7b" d="M 247.058594 23.351562 L 247.058594 22.972656 L 246.820312 22.972656 L 246.820312 90.167969 L 253.890625 90.167969 L 253.890625 23.351562 Z M 247.058594 23.351562 " fill-opacity="1" fill-rule="nonzero"/><path fill="#f87b7b" d="M 16.082031 82.703125 L 23.519531 82.703125 L 23.519531 90.167969 L 16.082031 90.167969 Z M 16.082031 82.703125 " fill-opacity="1" fill-rule="nonzero"/><path fill="#f87b7b" d="M 53.300781 75.238281 L 53.300781 60.304688 L 45.859375 60.304688 L 45.859375 82.703125 L 53.300781 82.703125 Z M 53.300781 75.238281 " fill-opacity="1" fill-rule="nonzero"/><path fill="#f87b7b" d="M 60.738281 22.972656 L 68.179688 22.972656 L 68.179688 30.429688 L 60.738281 30.429688 Z M 60.738281 22.972656 " fill-opacity="1" fill-rule="nonzero"/><path fill="#f87b7b" d="M 23.519531 22.972656 L 30.964844 22.972656 L 30.964844 30.429688 L 23.519531 30.429688 Z M 23.519531 22.972656 " fill-opacity="1" fill-rule="nonzero"/><path fill="#f87b7b" d="M 23.523438 37.90625 L 23.523438 30.4375 L 16.082031 30.4375 L 16.082031 52.835938 L 23.523438 52.835938 Z M 23.523438 37.90625 " fill-opacity="1" fill-rule="nonzero"/><path fill="#f19798" d="M 8.667969 30.207031 L 8.667969 30.4375 L 16.082031 30.4375 L 16.082031 23.351562 L 8.667969 23.351562 Z M 8.667969 30.207031 " fill-opacity="1" fill-rule="nonzero"/><path fill="#f19798" d="M 239.464844 15.742188 L 239.464844 15.507812 L 239.378906 15.507812 L 239.378906 22.972656 L 246.820312 22.972656 L 246.820312 15.742188 Z M 239.464844 15.742188 " fill-opacity="1" fill-rule="nonzero"/><path fill="#f19798" d="M 231.933594 8.125 L 23.84375 8.125 L 23.84375 15.742188 L 16.261719 15.742188 L 16.261719 22.972656 L 30.96875 22.972656 L 30.96875 15.507812 L 239.378906 15.507812 L 239.378906 8.125 Z M 231.933594 8.125 " fill-opacity="1" fill-rule="nonzero"/><g clip-path="url(#f5c9a33ec2)"><path fill="#5561d3" d="M 254.785156 22.457031 L 254.785156 15.601562 L 247.199219 15.601562 L 247.199219 7.980469 L 239.601562 7.980469 L 239.601562 0.367188 L 22.964844 0.367188 L 22.964844 7.980469 L 16.121094 7.980469 L 16.121094 15.601562 L 8.53125 15.601562 L 8.53125 22.457031 L 0.933594 22.457031 L 0.933594 90.511719 L 8.53125 90.511719 L 8.53125 98.128906 L 16.121094 98.128906 L 16.121094 104.996094 L 22.953125 104.996094 L 22.953125 112.609375 L 239.589844 112.609375 L 239.589844 104.996094 L 247.1875 104.996094 L 247.1875 98.128906 L 254.773438 98.128906 L 254.773438 90.511719 L 261.609375 90.511719 L 261.609375 22.457031 Z M 253.726562 30.207031 L 253.726562 90.234375 L 246.921875 90.234375 L 246.921875 97.085938 L 239.320312 97.085938 L 239.320312 104.707031 L 23.984375 104.707031 L 23.984375 97.085938 L 16.398438 97.085938 L 16.398438 90.234375 L 8.832031 90.234375 L 8.832031 23.488281 L 16.398438 23.488281 L 16.398438 15.878906 L 23.984375 15.878906 L 23.984375 8.289062 L 239.320312 8.289062 L 239.320312 15.878906 L 246.914062 15.878906 L 246.914062 23.488281 L 253.726562 23.488281 Z M 253.726562 30.207031 " fill-opacity="1" fill-rule="nonzero"/></g></svg>